<svg id="Groupe_7205" data-name="Groupe 7205" xmlns="http://www.w3.org/2000/svg" width="16.372" height="20.479" viewBox="0 0 16.372 20.479">
  <g id="Groupe_1259" data-name="Groupe 1259">
    <g id="Groupe_1256" data-name="Groupe 1256" transform="translate(0 15.748)">
      <path id="Tracé_931" data-name="Tracé 931" d="M41.716,322.284H29.462a2.369,2.369,0,0,1-2.365-2.366,2.337,2.337,0,0,1,.046-.471,2.387,2.387,0,0,1,2.319-1.894h13.35a.657.657,0,0,1,.657.657v.351a.655.655,0,0,1-.268.528,1.023,1.023,0,0,0-.422.829,1.086,1.086,0,0,0,.319.76.657.657,0,0,1,.084.806A1.742,1.742,0,0,1,41.716,322.284Zm-12.254-3.417a1.065,1.065,0,0,0-1.032.848.973.973,0,0,0-.019.2,1.052,1.052,0,0,0,1.051,1.051H41.71a2.351,2.351,0,0,1,.006-2.1Z" transform="translate(-27.097 -317.553)" fill="#878787"/>
    </g>
    <g id="Groupe_1257" data-name="Groupe 1257">
      <path id="Tracé_932" data-name="Tracé 932" d="M27.787,320.236a.686.686,0,0,1-.69-.657V304.105a2.3,2.3,0,0,1,2.3-2.3h12.32a1.754,1.754,0,0,1,1.753,1.752V318.21a.657.657,0,0,1-.657.657H29.462a1.065,1.065,0,0,0-1.032.848A.657.657,0,0,1,27.787,320.236ZM29.4,303.119a.987.987,0,0,0-.985.986v13.7a2.345,2.345,0,0,1,1.051-.25H42.154v-14a.444.444,0,0,0-.438-.438Z" transform="translate(-27.097 -301.805)" fill="#878787"/>
    </g>
    <g id="Groupe_1258" data-name="Groupe 1258" transform="translate(3.422 0.006)">
      <path id="Tracé_933" data-name="Tracé 933" d="M35.283,309.97a.652.652,0,0,1-.365-.111l-1.689-1.126-1.688,1.126a.657.657,0,0,1-1.022-.547v-6.844a.657.657,0,0,1,.657-.657h4.107a.657.657,0,0,1,.657.657v6.844a.658.658,0,0,1-.657.658Zm-2.054-2.684a.655.655,0,0,1,.365.111l1.031.688v-4.96H31.833v4.96l1.032-.688A.651.651,0,0,1,33.229,307.286Z" transform="translate(-30.519 -301.811)" fill="#878787"/>
    </g>
  </g>
</svg>
