<svg id="Groupe_7206" data-name="Groupe 7206" xmlns="http://www.w3.org/2000/svg" width="23.216" height="16.372" viewBox="0 0 23.216 16.372">
  <g id="Groupe_1254" data-name="Groupe 1254">
    <g id="Groupe_1250" data-name="Groupe 1250" transform="translate(1.779 8.898)">
      <path id="Tracé_927" data-name="Tracé 927" d="M29.59,176.557H26.581a1.207,1.207,0,0,1-1.206-1.206v-5.063a1.207,1.207,0,0,1,1.206-1.205H29.59a1.207,1.207,0,0,1,1.206,1.205v5.063A1.207,1.207,0,0,1,29.59,176.557Zm-2.9-1.314h2.792V170.4H26.69Z" transform="translate(-25.375 -169.083)" fill="#878787"/>
    </g>
    <g id="Groupe_1251" data-name="Groupe 1251" transform="translate(8.897 4.791)">
      <path id="Tracé_928" data-name="Tracé 928" d="M36.709,176.557H33.7a1.208,1.208,0,0,1-1.206-1.206v-9.169a1.208,1.208,0,0,1,1.206-1.206h3.01a1.208,1.208,0,0,1,1.206,1.206v9.169A1.208,1.208,0,0,1,36.709,176.557Zm-2.9-1.314H36.6V166.29H33.808Z" transform="translate(-32.493 -164.976)" fill="#878787"/>
    </g>
    <g id="Groupe_1252" data-name="Groupe 1252" transform="translate(16.016)">
      <path id="Tracé_929" data-name="Tracé 929" d="M43.827,176.557H40.818a1.207,1.207,0,0,1-1.206-1.206v-13.96a1.207,1.207,0,0,1,1.206-1.206h3.009a1.207,1.207,0,0,1,1.206,1.206v13.96A1.207,1.207,0,0,1,43.827,176.557Zm-2.9-1.314h2.792V161.5H40.926Z" transform="translate(-39.612 -160.185)" fill="#878787"/>
    </g>
    <g id="Groupe_1253" data-name="Groupe 1253" transform="translate(0 15.058)">
      <path id="Tracé_930" data-name="Tracé 930" d="M46.155,176.557h-21.9a.657.657,0,0,1,0-1.314h21.9a.657.657,0,0,1,0,1.314Z" transform="translate(-23.596 -175.243)" fill="#878787"/>
    </g>
  </g>
</svg>
