<svg xmlns="http://www.w3.org/2000/svg" width="23.515" height="21.616" viewBox="0 0 23.515 21.616">
  <g id="Groupe_7208" data-name="Groupe 7208" transform="translate(0.331 0.158)">
    <g id="Groupe_1261" data-name="Groupe 1261" transform="translate(0.109 0.108)">
      <path id="Tracé_935" data-name="Tracé 935" d="M35.4,423.052a1.493,1.493,0,0,1-.846-.262l-4.695-2.958a1.416,1.416,0,0,1-.529-.6l-5.174-11.066a1.507,1.507,0,0,1,.707-2l2.578-1.24a1.458,1.458,0,0,1,.6-.145,1.506,1.506,0,0,1,1.349-1.352l3.481-.347a1.439,1.439,0,0,1,.606.068,1.505,1.505,0,0,1,1.761-.874L39.3,403.31a1.449,1.449,0,0,1,.551.274,1.5,1.5,0,0,1,1.956-.224l4.092,2.791a1.51,1.51,0,0,1,.4,2.093l-9.655,14.151a1.5,1.5,0,0,1-.965.631A1.591,1.591,0,0,1,35.4,423.052Zm-7.327-17.181a.352.352,0,0,0-.157.037l-2.578,1.24a.409.409,0,0,0-.192.548l5.176,11.072a.323.323,0,0,0,.121.138l4.712,2.968a.421.421,0,0,0,.324.076.409.409,0,0,0,.263-.172l9.655-14.151a.411.411,0,0,0-.108-.571l-4.091-2.791a.394.394,0,0,0-.308-.064.405.405,0,0,0-.262.171l-1.006,1.472-.3-1.172a.4.4,0,0,0-.284-.3l-4.072-1.039a.41.41,0,0,0-.5.3l-.434,1.706-.685-.984a.412.412,0,0,0-.368-.185l-3.481.348a.41.41,0,0,0-.368.449l.167,1.67-.976-.679A.445.445,0,0,0,28.069,405.871Z" transform="translate(-24.005 -402.223)" fill="#878787"/>
    </g>
    <g id="Groupe_1267" data-name="Groupe 1267">
      <g id="Groupe_1262" data-name="Groupe 1262" transform="translate(0 2.547)">
        <path id="Rectangle_510" data-name="Rectangle 510" d="M.958,0H3.819a.958.958,0,0,1,.958.958v11.33a.958.958,0,0,1-.958.958H0a0,0,0,0,1,0,0V.958A.958.958,0,0,1,.958,0Z" transform="matrix(0.901, -0.434, 0.434, 0.901, 0.336, 2.409)" fill="#fff" stroke="#fff" stroke-width="1"/>
        <path id="Tracé_936" data-name="Tracé 936" d="M29.977,419.663a.657.657,0,0,1-.593-.372l-5.328-11.072a1.617,1.617,0,0,1,.755-2.156l2.578-1.24a1.616,1.616,0,0,1,2.156.755l4.912,10.209a1.616,1.616,0,0,1-.755,2.156L30.261,419.6A.657.657,0,0,1,29.977,419.663Zm-1.888-13.687a.3.3,0,0,0-.13.03l-2.578,1.24a.3.3,0,0,0-.141.4l5.043,10.48,2.849-1.37h0a.3.3,0,0,0,.141-.4l-4.912-10.209a.3.3,0,0,0-.172-.154A.3.3,0,0,0,28.089,405.976Z" transform="translate(-23.897 -404.661)" fill="#878787"/>
      </g>
      <g id="Groupe_1263" data-name="Groupe 1263" transform="translate(4.022 0.845)">
        <path id="Rectangle_511" data-name="Rectangle 511" d="M.958,0h3.5a.958.958,0,0,1,.958.958v13.1a.958.958,0,0,1-.958.958H0a0,0,0,0,1,0,0V.958A.958.958,0,0,1,.958,0Z" transform="translate(0.567 1.105) rotate(-5.694)" fill="#fff" stroke="#fff" stroke-width="1"/>
        <path id="Tracé_937" data-name="Tracé 937" d="M29.976,419.663a.658.658,0,0,1-.654-.592l-1.4-13.989a1.616,1.616,0,0,1,1.447-1.767l3.482-.347a1.613,1.613,0,0,1,1.767,1.447l1.3,13.035a1.616,1.616,0,0,1-1.447,1.768l-4.435.442Zm3.041-15.389-.031,0-3.481.347a.3.3,0,0,0-.2.109.3.3,0,0,0-.066.22l1.33,13.335,3.781-.377h0a.3.3,0,0,0,.2-.109.293.293,0,0,0,.066-.22l-1.3-13.035a.3.3,0,0,0-.3-.272Z" transform="translate(-27.919 -402.96)" fill="#878787"/>
      </g>
      <g id="Groupe_1264" data-name="Groupe 1264" transform="translate(5.422)">
        <path id="Rectangle_512" data-name="Rectangle 512" d="M.958,0h4.2a.958.958,0,0,1,.958.958V16.009a.958.958,0,0,1-.958.958H0a0,0,0,0,1,0,0V.958A.958.958,0,0,1,.958,0Z" transform="translate(4.85 0.45) rotate(14.306)" fill="#fff" stroke="#fff" stroke-width="1"/>
        <path id="Tracé_938" data-name="Tracé 938" d="M35.214,420.969a1.625,1.625,0,0,1-.4-.051l-5-1.275a.658.658,0,0,1-.475-.8l3.956-15.513a1.616,1.616,0,0,1,1.965-1.166l4.072,1.038a1.618,1.618,0,0,1,1.166,1.964l-3.719,14.586A1.62,1.62,0,0,1,35.214,420.969Zm-4.439-2.437,4.364,1.113h0a.3.3,0,0,0,.366-.217l3.719-14.585a.3.3,0,0,0-.217-.366l-4.072-1.038a.3.3,0,0,0-.367.217Z" transform="translate(-29.319 -402.115)" fill="#878787"/>
      </g>
      <g id="Groupe_1265" data-name="Groupe 1265" transform="translate(5.877 0.874)">
        <path id="Rectangle_513" data-name="Rectangle 513" d="M.958,0H5.911a.958.958,0,0,1,.958.958V18.089a.958.958,0,0,1-.958.958H1.167A1.167,1.167,0,0,1,0,17.88V.958A.958.958,0,0,1,.958,0Z" transform="matrix(0.826, 0.564, -0.564, 0.826, 10.938, 0.284)" fill="#fff" stroke="#fff" stroke-width="1"/>
        <path id="Tracé_939" data-name="Tracé 939" d="M35.4,423.162a1.609,1.609,0,0,1-.908-.282l-3.918-2.673a1.826,1.826,0,0,1-.479-2.536l9.538-13.977a1.614,1.614,0,0,1,2.244-.424l4.091,2.791a1.618,1.618,0,0,1,.424,2.245l-9.655,14.151a1.61,1.61,0,0,1-1.035.677A1.722,1.722,0,0,1,35.4,423.162ZM40.963,404.3a.281.281,0,0,0-.056.005.3.3,0,0,0-.192.126l-9.538,13.979a.508.508,0,0,0,.134.709l3.918,2.673h0a.3.3,0,0,0,.225.047.3.3,0,0,0,.193-.126L45.3,407.565a.3.3,0,0,0-.079-.419l-4.091-2.791A.291.291,0,0,0,40.963,404.3Z" transform="translate(-29.773 -402.989)" fill="#878787"/>
      </g>
      <g id="Groupe_1266" data-name="Groupe 1266" transform="translate(9.146 14.387)">
        <path id="Tracé_940" data-name="Tracé 940" d="M34.682,419.78a1.639,1.639,0,1,1,1.639-1.639A1.641,1.641,0,0,1,34.682,419.78Zm0-2.183a.544.544,0,1,0,.544.544A.545.545,0,0,0,34.682,417.6Z" transform="translate(-33.043 -416.502)" fill="#878787"/>
      </g>
    </g>
  </g>
</svg>
