<svg id="Groupe_7212" data-name="Groupe 7212" xmlns="http://www.w3.org/2000/svg" width="20.024" height="19.742" viewBox="0 0 20.024 19.742">
  <g id="Groupe_1277" data-name="Groupe 1277" transform="translate(4.028 3.463)">
    <path id="Tracé_952" data-name="Tracé 952" d="M27.093,512.579a.085.085,0,0,1-.023-.057.559.559,0,0,1-.011-.135A.563.563,0,0,0,27.093,512.579Z" transform="translate(-27.059 -506.848)" fill="#878787"/>
    <path id="Tracé_953" data-name="Tracé 953" d="M35.711,507.976l-.6.395-.586.383-2.538,1.659-1.151.744a3.154,3.154,0,0,0-.733-1.128l.564-.372.575-.384,2.538-1.658.587-.372v-.011l.6-.384A1.745,1.745,0,0,0,35.711,507.976Z" transform="translate(-27.059 -506.848)" fill="#878787"/>
    <path id="Tracé_954" data-name="Tracé 954" d="M38.148,514.327a1.741,1.741,0,0,0,.056.418l-.71-.113-.688-.113-4.592-.733-.677-.1-.677-.112a3.439,3.439,0,0,0,.215-1.185.713.713,0,0,0-.011-.158l.688.113.677.1,4.591.734.688.112.711.113A1.745,1.745,0,0,0,38.148,514.327Z" transform="translate(-27.059 -506.848)" fill="#878787"/>
  </g>
  <g id="Groupe_1278" data-name="Groupe 1278" transform="translate(6.115 11.213)">
    <path id="Tracé_955" data-name="Tracé 955" d="M32.981,518.276a1.76,1.76,0,0,0-1.071.823l-.44-.575-.418-.564-1.083-1.444-.417-.553-.406-.553a3.34,3.34,0,0,0,1.083-.812l.406.553.417.553,1.083,1.444.418.552Z" transform="translate(-29.146 -514.598)" fill="#878787"/>
  </g>
  <g id="Groupe_1279" data-name="Groupe 1279" transform="translate(0 4.298)">
    <path id="Tracé_956" data-name="Tracé 956" d="M27.093,512.579a.085.085,0,0,1-.023-.057.559.559,0,0,1-.011-.135A.563.563,0,0,0,27.093,512.579Z" transform="translate(-23.031 -507.683)" fill="#878787"/>
    <path id="Tracé_957" data-name="Tracé 957" d="M31.413,510.785a3.763,3.763,0,0,0-.744-1.128,3.961,3.961,0,0,0-2.945-1.3,4.022,4.022,0,1,0,1.828,7.6,3.7,3.7,0,0,0,1.083-.812,3.942,3.942,0,0,0,.9-1.467,4.041,4.041,0,0,0,.215-1.3v-.045A3.973,3.973,0,0,0,31.413,510.785ZM30.229,514.6a3.343,3.343,0,1,1-.124-4.569,3.154,3.154,0,0,1,.733,1.128,3.11,3.11,0,0,1,.226,1.072.713.713,0,0,1,.011.158,3.439,3.439,0,0,1-.215,1.185A3.329,3.329,0,0,1,30.229,514.6Z" transform="translate(-23.031 -507.683)" fill="#878787"/>
    <path id="Tracé_958" data-name="Tracé 958" d="M31.989,510.413a4.511,4.511,0,0,0-.745-1.14,4.7,4.7,0,1,0-3.52,7.807,4.731,4.731,0,0,0,2.245-.564,5.475,5.475,0,0,0,1.083-.812,4.655,4.655,0,0,0,1.162-1.918,4.848,4.848,0,0,0,.215-1.343v-.056A4.6,4.6,0,0,0,31.989,510.413Zm-.914,1.974a3.439,3.439,0,0,1-.215,1.185,3.347,3.347,0,1,1-3.136-4.535,3.373,3.373,0,0,1,2.381.992,3.154,3.154,0,0,1,.733,1.128,3.11,3.11,0,0,1,.226,1.072A.713.713,0,0,1,31.075,512.387Z" transform="translate(-23.031 -507.683)" fill="#878787"/>
  </g>
  <g id="Groupe_1280" data-name="Groupe 1280" transform="translate(10.548)">
    <path id="Tracé_959" data-name="Tracé 959" d="M36.715,504.062a2.465,2.465,0,0,0-2.459,2.459,2.135,2.135,0,0,0,.113.711v.011a2.47,2.47,0,0,0,2.346,1.726,2.453,2.453,0,0,0,0-4.907Zm0,4.23a1.715,1.715,0,0,1-1-.316,1.745,1.745,0,0,1-.744-1.128,1.5,1.5,0,0,1-.034-.327,1.777,1.777,0,1,1,1.782,1.771Z" transform="translate(-33.579 -503.385)" fill="#878787"/>
    <path id="Tracé_960" data-name="Tracé 960" d="M36.715,503.385a3.144,3.144,0,0,0-3.136,3.136,2.954,2.954,0,0,0,.2,1.094,3.067,3.067,0,0,0,.745,1.139,3.126,3.126,0,0,0,5.313-2.233A3.141,3.141,0,0,0,36.715,503.385Zm0,4.907a1.715,1.715,0,0,1-1-.316,1.745,1.745,0,0,1-.744-1.128,1.5,1.5,0,0,1-.034-.327,1.777,1.777,0,1,1,1.782,1.771Z" transform="translate(-33.579 -503.385)" fill="#878787"/>
  </g>
  <g id="Groupe_1281" data-name="Groupe 1281" transform="translate(7.265 13.481)">
    <path id="Tracé_961" data-name="Tracé 961" d="M33.421,517.542a2.479,2.479,0,0,0-.868.158,2.487,2.487,0,0,0-1.58,2.29,2.448,2.448,0,1,0,2.448-2.448Zm0,4.231a1.784,1.784,0,0,1-1.771-1.783,1.612,1.612,0,0,1,.26-.891,1.76,1.76,0,0,1,1.071-.823,1.8,1.8,0,0,1,.44-.057,1.777,1.777,0,0,1,0,3.554Z" transform="translate(-30.296 -516.866)" fill="#878787"/>
    <path id="Tracé_962" data-name="Tracé 962" d="M33.421,516.866a3.02,3.02,0,0,0-1.286.282,2.95,2.95,0,0,0-1.083.812,3.066,3.066,0,0,0-.756,2.03,3.125,3.125,0,1,0,3.125-3.124Zm0,4.907a1.784,1.784,0,0,1-1.771-1.783,1.612,1.612,0,0,1,.26-.891,1.76,1.76,0,0,1,1.071-.823,1.8,1.8,0,0,1,.44-.057,1.777,1.777,0,0,1,0,3.554Z" transform="translate(-30.296 -516.866)" fill="#878787"/>
  </g>
  <g id="Groupe_1282" data-name="Groupe 1282" transform="translate(13.763 7.817)">
    <path id="Tracé_963" data-name="Tracé 963" d="M39.93,511.879a2.458,2.458,0,0,0-2.222,1.41,2.3,2.3,0,0,0-.237,1.038,2.608,2.608,0,0,0,.023.3,2.451,2.451,0,1,0,2.436-2.753Zm0,4.231a1.78,1.78,0,0,1-1.726-1.365,1.777,1.777,0,0,1,1.726-2.189,1.777,1.777,0,0,1,0,3.554Z" transform="translate(-36.794 -511.202)" fill="#878787"/>
    <path id="Tracé_964" data-name="Tracé 964" d="M39.93,511.2a3.144,3.144,0,0,0-2.91,1.975,2.978,2.978,0,0,0-.226,1.15.969.969,0,0,0,.012.192A3.127,3.127,0,1,0,39.93,511.2Zm0,4.908a1.78,1.78,0,0,1-1.726-1.365,1.777,1.777,0,0,1,1.726-2.189,1.777,1.777,0,0,1,0,3.554Z" transform="translate(-36.794 -511.202)" fill="#878787"/>
  </g>
</svg>
