<svg id="Groupe_7210" data-name="Groupe 7210" xmlns="http://www.w3.org/2000/svg" width="18.399" height="18.399" viewBox="0 0 18.399 18.399">
  <path id="Tracé_941" data-name="Tracé 941" d="M33.838,472.055H32.25a1.754,1.754,0,0,1-1.741-1.548l-.115-.9c-.085-.034-.169-.069-.253-.105l-.724.562a1.747,1.747,0,0,1-2.327-.153L25.98,468.8a1.742,1.742,0,0,1-.143-2.317l.562-.724c-.036-.084-.071-.168-.1-.253l-.913-.116a1.753,1.753,0,0,1-1.538-1.74v-1.588a1.754,1.754,0,0,1,1.546-1.74l.905-.115c.033-.085.068-.17.1-.253l-.562-.724a1.749,1.749,0,0,1,.154-2.329l1.109-1.108a1.741,1.741,0,0,1,2.317-.144l.724.562c.084-.036.168-.071.253-.1l.116-.912a1.752,1.752,0,0,1,1.74-1.538h1.588a1.753,1.753,0,0,1,1.74,1.545l.115.9c.085.034.17.068.253.1l.724-.562A1.746,1.746,0,0,1,39,455.8l1.109,1.109a1.738,1.738,0,0,1,.144,2.316l-.563.725c.036.083.071.168.1.253l.911.116a1.752,1.752,0,0,1,1.539,1.739v1.588a1.754,1.754,0,0,1-1.545,1.74l-.905.116c-.033.085-.068.169-.1.253l.563.723a1.746,1.746,0,0,1-.155,2.328l-1.109,1.11a1.74,1.74,0,0,1-2.317.143l-.724-.563c-.083.036-.168.071-.253.105l-.116.913A1.751,1.751,0,0,1,33.838,472.055ZM30.052,468a.694.694,0,0,1,.316.076,5.845,5.845,0,0,0,.871.36.694.694,0,0,1,.474.571l.169,1.33a.372.372,0,0,0,.368.333h1.588a.369.369,0,0,0,.367-.324l.17-1.338a.69.69,0,0,1,.471-.57,6.034,6.034,0,0,0,.874-.362.7.7,0,0,1,.739.069l1.06.823a.361.361,0,0,0,.483-.021l1.124-1.124a.369.369,0,0,0,.032-.495l-.823-1.058a.691.691,0,0,1-.069-.74,5.847,5.847,0,0,0,.361-.871.689.689,0,0,1,.571-.474l1.33-.169a.372.372,0,0,0,.331-.368v-1.588a.368.368,0,0,0-.323-.367H40.53l-1.332-.17a.69.69,0,0,1-.571-.472,5.916,5.916,0,0,0-.361-.873.689.689,0,0,1,.069-.739l.824-1.06a.362.362,0,0,0-.022-.482l-1.125-1.125a.368.368,0,0,0-.5-.032l-1.057.822a.689.689,0,0,1-.738.07,6.074,6.074,0,0,0-.875-.361.691.691,0,0,1-.472-.571l-.17-1.331a.371.371,0,0,0-.367-.331H32.25a.369.369,0,0,0-.367.324l-.17,1.338a.692.692,0,0,1-.473.571,5.863,5.863,0,0,0-.873.361.7.7,0,0,1-.74-.07l-1.059-.823a.363.363,0,0,0-.482.023l-1.124,1.123a.368.368,0,0,0-.032.5l.822,1.059a.691.691,0,0,1,.069.74,5.958,5.958,0,0,0-.361.872.688.688,0,0,1-.57.472l-1.331.17a.371.371,0,0,0-.331.367v1.588a.369.369,0,0,0,.324.367l1.338.17a.691.691,0,0,1,.57.473,5.991,5.991,0,0,0,.362.873.693.693,0,0,1-.069.739l-.823,1.06a.361.361,0,0,0,.021.482l1.124,1.124a.368.368,0,0,0,.495.032l1.058-.823A.693.693,0,0,1,30.052,468Zm2.992-1.455a3.691,3.691,0,1,1,3.691-3.691A3.7,3.7,0,0,1,33.044,466.546Zm0-6a2.307,2.307,0,1,0,2.307,2.307A2.31,2.31,0,0,0,33.044,460.548Z" transform="translate(-23.844 -453.656)" fill="fill-current"/>
</svg>
