<svg xmlns="http://www.w3.org/2000/svg" width="19.619" height="14.047" viewBox="0 0 19.619 14.047">
  <g id="Groupe_1192" data-name="Groupe 1192" transform="translate(-767.049 -391.175)">
    <path id="Tracé_897" data-name="Tracé 897" d="M782.878,397.087c.009-.13.039-.254.039-.386a5.524,5.524,0,0,0-10.945-1.064c-.042,0-.082-.012-.125-.012a4.8,4.8,0,0,0,0,9.6h10.739a4.072,4.072,0,0,0,.292-8.135Z" fill="#fff"/>
    <g id="Groupe_1191" data-name="Groupe 1191">
      <path id="Tracé_898" data-name="Tracé 898" d="M777.039,403.009l-3.633-3.476a.118.118,0,0,1,.082-.2h7.267a.119.119,0,0,1,.082.2l-3.634,3.476A.118.118,0,0,1,777.039,403.009Z" fill="#0084a8"/>
      <rect id="Rectangle_481" data-name="Rectangle 481" width="3.415" height="4.004" rx="0.2" transform="translate(775.414 395.896)" fill="#0084a8"/>
    </g>
  </g>
</svg>
