<svg id="Groupe_7207" data-name="Groupe 7207" xmlns="http://www.w3.org/2000/svg" width="21.2" height="17.624" viewBox="0 0 21.2 17.624">
  <g id="Groupe_1272" data-name="Groupe 1272" transform="translate(0 2.283)">
    <g id="Groupe_1270" data-name="Groupe 1270" transform="translate(2.145)">
      <path id="Tracé_942" data-name="Tracé 942" d="M28.087,112.2a2.859,2.859,0,1,0,2.86,2.859A2.859,2.859,0,0,0,28.087,112.2Zm0,5.078a2.219,2.219,0,1,1,2.219-2.219A2.218,2.218,0,0,1,28.087,117.277Z" transform="translate(-24.588 -111.559)" fill="#fff"/>
      <path id="Tracé_943" data-name="Tracé 943" d="M28.087,111.559a3.5,3.5,0,1,0,3.5,3.5A3.5,3.5,0,0,0,28.087,111.559Zm0,5.718a2.219,2.219,0,1,1,2.219-2.219A2.218,2.218,0,0,1,28.087,117.277Z" transform="translate(-24.588 -111.559)" fill="#878787"/>
    </g>
    <g id="Groupe_1271" data-name="Groupe 1271" transform="translate(0 6.741)">
      <path id="Tracé_944" data-name="Tracé 944" d="M32.173,123.11a3.544,3.544,0,0,1,.31-.82v-.01a4.347,4.347,0,0,0-.43-.6,2.542,2.542,0,0,0-.45-.48,3.973,3.973,0,0,0-.3.58,5.8,5.8,0,0,0-.57,2.53v.94a1.553,1.553,0,0,0,.04.37h1.44a.239.239,0,0,0,.09-.02.364.364,0,0,1-.29-.35v-.94A4.344,4.344,0,0,1,32.173,123.11Z" transform="translate(-22.443 -118.3)" fill="#fff"/>
      <path id="Tracé_945" data-name="Tracé 945" d="M32.433,121.12c-.14-.16-.29-.31-.45-.46a4.039,4.039,0,0,0-.38.54,3.973,3.973,0,0,0-.3.58,2.872,2.872,0,0,1,.44.55,4.958,4.958,0,0,1,.43.78,3.544,3.544,0,0,1,.31-.82v-.01a3.3,3.3,0,0,1,.36-.63C32.713,121.47,32.583,121.29,32.433,121.12Z" transform="translate(-22.443 -118.3)" fill="#878787"/>
      <path id="Tracé_946" data-name="Tracé 946" d="M43.643,124.31v.94A1.65,1.65,0,0,1,42,126.9h-9.62a.22.22,0,0,1-.08-.01.248.248,0,0,1-.09.01h-8.27a1.5,1.5,0,0,1-1.5-1.5v-.83a5.254,5.254,0,0,1,5.25-5.24h.79a5.262,5.262,0,0,1,3.5,1.33,4.039,4.039,0,0,0-.38.54,3.973,3.973,0,0,0-.3.58,3.96,3.96,0,0,0-2.82-1.17h-.79a3.971,3.971,0,0,0-3.97,3.96v.83a.237.237,0,0,0,.22.22h8.27a.239.239,0,0,0,.09-.02.12.12,0,0,0,.08.02H42a.367.367,0,0,0,.36-.37v-.94a4.724,4.724,0,0,0-4.72-4.73h-.9a4.7,4.7,0,0,0-3.9,2.07c-.13-.18-.26-.36-.41-.53s-.29-.31-.45-.46a5.967,5.967,0,0,1,4.76-2.36h.9A6.013,6.013,0,0,1,43.643,124.31Z" transform="translate(-22.443 -118.3)" fill="#878787"/>
    </g>
  </g>
  <g id="Groupe_1275" data-name="Groupe 1275" transform="translate(8.29)">
    <g id="Groupe_1273" data-name="Groupe 1273" transform="translate(2.497)">
      <path id="Tracé_947" data-name="Tracé 947" d="M37.188,109.916a3.323,3.323,0,1,0,3.328,3.329A3.324,3.324,0,0,0,37.188,109.916Zm0,6.006a2.683,2.683,0,1,1,2.688-2.677A2.686,2.686,0,0,1,37.188,115.922Z" transform="translate(-33.23 -109.276)" fill="#fff"/>
      <path id="Tracé_948" data-name="Tracé 948" d="M37.188,109.276a3.964,3.964,0,1,0,3.968,3.969A3.972,3.972,0,0,0,37.188,109.276Zm0,6.646a2.683,2.683,0,1,1,2.688-2.677A2.686,2.686,0,0,1,37.188,115.922Z" transform="translate(-33.23 -109.276)" fill="#878787"/>
    </g>
    <g id="Groupe_1274" data-name="Groupe 1274" transform="translate(0 11.384)">
      <path id="Tracé_949" data-name="Tracé 949" d="M32.433,121.12a4.241,4.241,0,0,0-.38.56c-.11.22-.22.43-.31.65a5.4,5.4,0,0,0-.37,1.98v.94a.937.937,0,0,0,.07.37h.77a.239.239,0,0,0,.09-.02.364.364,0,0,1-.29-.35v-.94a4.344,4.344,0,0,1,.16-1.2,3.544,3.544,0,0,1,.31-.82v-.01a3.3,3.3,0,0,1,.36-.63C32.713,121.47,32.583,121.29,32.433,121.12Z" transform="translate(-30.733 -120.66)" fill="#fff"/>
      <path id="Tracé_950" data-name="Tracé 950" d="M32.433,121.12c-.14-.16-.29-.31-.45-.46a4.039,4.039,0,0,0-.38.54,3.973,3.973,0,0,0-.3.58,5.8,5.8,0,0,0-.57,2.53v.94a1.553,1.553,0,0,0,.04.37h1.44a.239.239,0,0,0,.09-.02.364.364,0,0,1-.29-.35v-.94a4.344,4.344,0,0,1,.16-1.2,3.544,3.544,0,0,1,.31-.82v-.01a3.3,3.3,0,0,1,.36-.63C32.713,121.47,32.583,121.29,32.433,121.12Z" transform="translate(-30.733 -120.66)" fill="#878787"/>
    </g>
  </g>
  <path id="Tracé_951" data-name="Tracé 951" d="M32.383,126.9h-.17a.248.248,0,0,0,.09-.01A.22.22,0,0,0,32.383,126.9Z" transform="translate(-22.443 -109.276)" fill="#878787"/>
</svg>
